<svg width="21" height="20" viewBox="0 0 21 20" fill="none" xmlns="http://www.w3.org/2000/svg">
<path d="M9.07143 0C7.5 0 6.21429 1.125 6.21429 2.5H3.35714C1.78571 2.5 0.5 3.625 0.5 5H20.5C20.5 3.625 19.2143 2.5 17.6429 2.5H14.7857C14.7857 1.125 13.5 0 11.9286 0H9.07143ZM3.35714 7.5V19.525C3.35714 19.8 3.58571 20 3.9 20H17.1286C17.4429 20 17.6714 19.8 17.6714 19.525V7.5H14.8143V16.25C14.8143 16.95 14.1857 17.5 13.3857 17.5C12.5857 17.5 11.9571 16.95 11.9571 16.25V7.5H9.1V16.25C9.1 16.95 8.47143 17.5 7.67143 17.5C6.87143 17.5 6.24286 16.95 6.24286 16.25V7.5H3.38571H3.35714Z" fill="black"/>
</svg>