<svg width="25" height="20" viewBox="0 0 25 20" fill="none" xmlns="http://www.w3.org/2000/svg">
<path d="M12.5938 0C4.6875 0 0 10 0 10C0 10 4.6875 20 12.5938 20C20.3125 20 25 10 25 10C25 10 20.3125 0 12.5938 0ZM12.5 3.33333C15.9688 3.33333 18.75 6.33333 18.75 10C18.75 13.7 15.9688 16.6667 12.5 16.6667C9.0625 16.6667 6.25 13.7 6.25 10C6.25 6.33333 9.0625 3.33333 12.5 3.33333ZM12.5 6.66667C10.7812 6.66667 9.375 8.16667 9.375 10C9.375 11.8333 10.7812 13.3333 12.5 13.3333C14.2188 13.3333 15.625 11.8333 15.625 10C15.625 9.66667 15.5 9.36667 15.4375 9.06667C15.1875 9.6 14.6875 10 14.0625 10C13.1875 10 12.5 9.26667 12.5 8.33333C12.5 7.66667 12.875 7.13333 13.375 6.86667C13.0938 6.76667 12.8125 6.66667 12.5 6.66667Z" fill="black" fill-opacity="0.6"/>
</svg>
