<svg width="18" height="18" viewBox="0 0 18 18" fill="none" xmlns="http://www.w3.org/2000/svg">
<path d="M9 11.6902L3.29283 17.413C2.93283 17.7717 2.4737 17.9511 1.91544 17.9511C1.35718 17.9511 0.89805 17.7717 0.53805 17.413C0.178051 17.0543 -0.00129728 16.5978 7.06325e-06 16.0435C0.00131141 15.4891 0.180659 15.0326 0.53805 14.6739L6.26087 8.95109L0.53805 3.29283C0.179355 2.93283 7.06325e-06 2.4737 7.06325e-06 1.91544C7.06325e-06 1.35718 0.179355 0.898049 0.53805 0.53805C0.896746 0.17805 1.35327 -0.00129728 1.90761 7.06328e-06C2.46196 0.00131141 2.91848 0.180658 3.27718 0.53805L9 6.26087L14.6583 0.53805C15.0183 0.179354 15.4774 7.06328e-06 16.0357 7.06328e-06C16.5939 7.06328e-06 17.053 0.179354 17.413 0.53805C17.8043 0.929354 18 1.39435 18 1.93305C18 2.47175 17.8043 2.91979 17.413 3.27718L11.6902 8.95109L17.413 14.6583C17.7717 15.0183 17.9511 15.4774 17.9511 16.0357C17.9511 16.5939 17.7717 17.053 17.413 17.413C17.0217 17.8043 16.5574 18 16.02 18C15.4826 18 15.0339 17.8043 14.6739 17.413L9 11.6902Z" fill="#1A5BAB"/>
</svg>